<svg xmlns="http://www.w3.org/2000/svg" xmlns:xlink="http://www.w3.org/1999/xlink" version="1.1" x="0px" y="0px" viewBox="0 0 100 125" enable-background="new 0 0 100 100" xml:space="preserve"><path fill="#000000" d="M9.3,61.6l83.3,0l1.4-3H94v-4.4h-0.2v4.4H80.4l-0.6-1.4l-1.6,0l0-0.4h1.3v-0.2h-1.3c0,0-0.3-0.5-1-0.5  c-0.8,0-0.8,0.1-0.8,0.3v0.8h-1c0,0,0-0.7-0.3-0.8c-0.2-0.1-0.7-0.1-0.7-0.1v-0.5h1.1v-0.2h-1.3c0,0-0.7-0.4-1.2-0.4  c-0.5,0-0.8,0-0.8,0.3v0.8h-0.7L71.4,56v-0.7l0.4-0.6v-0.4h-0.7v-0.4h-1.4v-0.3c0,0,0.5-0.2,0.7-0.2l0.2,0l0-0.1h-0.4  c0,0-0.3-0.3-0.6-0.3s-0.5,0.3-0.5,0.4c0,0.1,0.3,0.2,0.3,0.2v0.3h-0.3v0.5h-1l-0.3-0.3l0-0.4l0.6-0.5v-0.3h-0.9v-0.8h-0.5v-0.4  c0,0,0.4-0.3,0.4-0.5c0-0.2-0.3-0.4-0.7-0.4S66,51.6,66,51.6l0.2,0.3l0,0.3L66,52.3v0.7h-0.6v0.3h-0.7l-0.3-1.3l0.6-0.3l-0.7-0.1  L64,51.1l0-0.5l1.5-0.2l0-0.4h-0.1l-0.1,0.2l-1.4,0.1l-0.2-1.7h-0.1l-0.1,1.7l-1.7,0.1l-0.2-2.4l0.5-0.1l0.4-0.3l0-0.1h-0.7  l-0.2-6.2h-0.1l-0.1,6.2h-1.2v0.2l0.6,0l0.4,0.4l0,2.2l-0.2,0l0,0.3l0.2,0l0.8,2.9H62L61.5,51l-0.1-0.6l0.7,0.1l0.8,0.3l-0.2,0.9  l-0.7,0l0,0.2h0.6l-0.4,1.4l-0.8,0l0,1l-0.7,0.2l-1-0.5l-0.2,0.1l0.2,0.2l0.8,0.4l0,0.6l-0.3,0c0,0-0.1-0.3-0.3-0.3  c-0.3,0-0.2,0.3-0.2,0.3l-0.7,0l0-0.9l-0.2,0l0,0.5l-0.2,0.4l-0.5,0c0,0-0.1-0.5-0.4-0.4c-0.3,0-0.3,0.4-0.3,0.4l-0.7,0l-0.5-4  l0.4-0.2v-0.3l-0.5,0v-1c0,0,0.8-0.7,0.8-1.1S55.4,47,55.4,47l0-0.4l-0.5,0l0,0.4l-1.3,0l-0.2-2.2c0,0,0-0.1,0.2,0  c0.2,0,0.3,0.6,0.5,0.6s0.9-0.1,0.9-0.2c0,0,0-0.2-0.2-0.5c-0.2-0.3-1.5-0.9-1.5-0.9l0.1-4.1c0,0,0.4-0.3,0.8-0.1  c0.4,0.2,0.9,0.3,1,0.3c0.1,0,0.5-0.1,0.5-0.1l-0.2-1.3c0,0-0.1,0.1-0.4,0.1c-0.3,0-1-0.3-1.2-0.3c-0.2,0-0.5,0.2-0.5,0.2  s0-0.1-0.1-0.1c-0.1,0-0.1,0.2-0.1,0.2v4.8l-0.4-0.1c0,0-0.5-0.4-0.6-0.4c-0.1,0-0.1,0.3-0.1,0.3s-1.1,2.7-0.9,2.8  c0.1,0.1,0.7,0.3,0.9,0.3c0.2,0,0.9-1.3,0.9-1.3l-0.2,1.9l-1.3,0L51,46.6l-0.4,0.1L50.3,47c0,0,1.9,0.9,2,1.1c0,0.2-0.4,0.8-0.4,0.8  l-0.7,0.2l-0.3,0.1l-0.1-0.7l-0.5-0.1c0,0,0.1-0.5-0.2-0.5c-0.3,0-0.4,0.4-0.3,0.5c0.2,0.1,0.3,0.2,0.3,0.2l0.5,0.1c0,0,0,0.6,0,0.6  c0,0-0.2,0-0.2,0l0,0.4l1.1,0l0.3,0.3l-0.3,3.4l-0.1,0l-0.1-1.4c0,0-0.5-0.5-1.4-0.5c-0.9,0-1.1,0-1.1,0l0,0.8H48l-0.1-0.5l-0.3-0.2  l0-0.2c0,0,0.4-0.1,0.4-0.4c0-0.2-0.2-0.4-0.4-0.5c-0.1-0.1-0.3-0.2-0.3-0.2l-0.1-4.6l-0.1,0l0,4.6c0,0-0.6,0.2-0.6,0.6  c0,0.3,0.4,0.6,0.4,0.6l0,0.2h-0.5v0.9h-3.2v1.6l-0.3,0l-0.1-0.2l-0.5,0v0.5l0.6,0.5l0,0.7h-0.2v0.6h-0.3v-0.6H42v-1.1h-2.3  l-0.4-0.7l-0.8,0c0,0-0.2,0-0.2,0.1c-0.1,0.1-0.1,0.1-0.1,0.1h-1.7v0.1l1.3,0c0,0,0,0.1,0,0.2c0,0,0.1,0.1,0.1,0.1l0,0.2  c0,0-0.2,0.1-0.3,0.1c-0.1,0.1-0.5,0.4-0.5,0.4l-0.9,0v0.1l0.5,0l0,0.2h0.4c0,0,0.2,0.1,0.3,0.1c0.1,0,0.1,0.2,0.1,0.2v0.6h-0.2v0.7  h-2.6v-0.8c0,0,0.6-0.3,0.6-1.1c0-0.7-0.4-1.1-1.1-1.1s-1.6,0-1.6,0s-1,0.4-1.2,0.6c-0.2,0.3-0.3,0.5-0.3,0.5l-6.7-0.3l0,0.3  l6.5,0.6l0,0.7l-1.4,1.5l-6.8-0.3c0,0-0.2-0.6-1.2-0.6c-0.9,0-18-1.1-18-1.1s-0.4,0-0.3,0.3c0.1,0.2,2.2,1.2,3.6,2.8  c1.4,1.6,2.3,2.4,2.3,2.4L9.3,61.6z"/></svg>