<svg xmlns="http://www.w3.org/2000/svg" xmlns:xlink="http://www.w3.org/1999/xlink" version="1.1" x="0px" y="0px" viewBox="0 0 100 125" enable-background="new 0 0 100 100" xml:space="preserve"><g><path d="M74.053,44.842c-0.031-0.1-0.06-0.191-0.086-0.269l-0.481-0.182c0.021,0.084,0.041,0.172,0.062,0.261   c0.58,2.481,1.105,6.595-0.118,11.084c-0.025,0.094-0.05,0.188-0.077,0.283c0.206-0.097,0.416-0.195,0.628-0.295l-0.153-0.058   c0.019-0.048,0.033-0.095,0.051-0.142C75.583,50.892,74.551,46.467,74.053,44.842z"/><path d="M71.734,43.731l-2.995-1.128l-0.038-0.007c-0.259-0.002-26.042-0.239-43.502-0.239c-15.474,0-15.979,0.185-16.146,0.246   c-1.618,0.591-4.356,2.864-4.356,7.626c0,4.959,2.859,7.634,4.027,7.634h60.343c0.177,0,1.095-0.386,2.411-0.981   c0.036-0.097,0.07-0.193,0.104-0.29c1.854-5.315,0.859-10.363,0.228-12.594C71.785,43.904,71.758,43.815,71.734,43.731z"/><path d="M85.213,50.298V48.81l-9.971-3.756c0.023,0.084,0.047,0.172,0.069,0.264c0.509,1.972,1.084,5.608-0.086,9.571   c-0.028,0.097-0.061,0.194-0.091,0.291c4.174-1.98,9.114-4.405,10.016-4.849L85.213,50.298z"/><path d="M76.718,44.99c0,0,7.62,3.157,7.772,3.09c0.268-0.118,1.346-6.18,1.346-6.18l3.428-0.134l0.121-0.94   c0,0-1.343-0.231-3.793-0.269C81.246,40.491,76.718,44.99,76.718,44.99z"/><path d="M85.683,58.099c0,0-1.17-6.448-1.438-6.566c-0.153-0.066-7.681,3.477-7.681,3.477s4.528,4.501,8.874,4.434   c2.45-0.038,3.794-0.269,3.794-0.269l-0.122-0.941L85.683,58.099z"/><rect x="85.929" y="42.909" width="3.182" height="14.441"/><path d="M93.206,51.506v-0.547h0.385l1.712-1.381l-1.656-1.216h-0.44v-0.786c0.343-0.252,0.592-0.984,0.592-1.846   c0-1.073,0.025-1.942-0.857-1.942s-0.858,0.869-0.858,1.942c0,0.862,0.249,1.594,0.594,1.846v0.786l-1.673-0.001v-0.785   c0.344-0.252,0.593-0.984,0.593-1.846c0-1.073,0.025-1.942-0.857-1.942c-0.884,0-0.858,0.869-0.858,1.942   c0,0.864,0.249,1.594,0.594,1.846v0.785h-0.731l-0.017,2.598h0.748v0.547c-0.345,0.252-0.594,0.983-0.594,1.847   c0,1.072-0.024,1.942,0.858,1.942s0.857-0.87,0.857-1.942c0-0.863-0.248-1.595-0.593-1.847v-0.547h1.673v0.548   c-0.345,0.252-0.594,0.982-0.594,1.846c0,1.072-0.023,1.942,0.858,1.942c0.883,0,0.857-0.87,0.857-1.942   C93.798,52.489,93.549,51.758,93.206,51.506z"/></g></svg>