<?xml version="1.0" encoding="iso-8859-1"?>
<!-- Generator: Adobe Illustrator 16.0.0, SVG Export Plug-In . SVG Version: 6.00 Build 0)  -->
<!DOCTYPE svg PUBLIC "-//W3C//DTD SVG 1.1//EN" "http://www.w3.org/Graphics/SVG/1.1/DTD/svg11.dtd">
<svg version="1.1" id="Capa_1" xmlns="http://www.w3.org/2000/svg" xmlns:xlink="http://www.w3.org/1999/xlink" x="0px" y="0px"
	 width="459.615px" height="459.614px" viewBox="0 0 459.615 459.614" style="enable-background:new 0 0 459.615 459.614;"
	 xml:space="preserve">
<g>
	<path d="M455.456,249.343l-13.932,3.993v53.451h-40.142l-30.042-37.909h-68.935v50.638c0,6.752-2.573,12.224-5.734,12.224
		l-78.506-62.856H101.073c-1.374,0-2.733-0.027-4.09-0.05v-78.049c1.357-0.022,2.717-0.047,4.09-0.047h121.717l73.873-62.862
		c3.169,0,5.729,5.475,5.729,12.238v50.624h64.635l34.354-43.598h40.142v59.82l13.927,4.169
		C464.818,230.934,455.456,249.343,455.456,249.343z M0,229.808c0,19.485,34.821,35.634,80.359,38.594v-77.169
		C34.827,194.19,0,210.327,0,229.808z"/>
</g>
<g>
</g>
<g>
</g>
<g>
</g>
<g>
</g>
<g>
</g>
<g>
</g>
<g>
</g>
<g>
</g>
<g>
</g>
<g>
</g>
<g>
</g>
<g>
</g>
<g>
</g>
<g>
</g>
<g>
</g>
</svg>
