<?xml version="1.0" encoding="iso-8859-1"?>
<!-- Generator: Adobe Illustrator 18.1.1, SVG Export Plug-In . SVG Version: 6.00 Build 0)  -->
<svg version="1.1" id="Capa_1" xmlns="http://www.w3.org/2000/svg" xmlns:xlink="http://www.w3.org/1999/xlink" x="0px" y="0px"
	 viewBox="0 0 25.979 25.979" style="enable-background:new 0 0 25.979 25.979;" xml:space="preserve">
<g>
	<path style="fill:#030104;" d="M25.744,6.604C26.08,6.267,26.107,6.02,25.48,6.02c-0.628,0-4.556,0-5.068,0
		c-0.512,0-0.533,0.016-0.814,0.297c-0.281,0.281-4.604,4.607-4.604,4.607s5.413,0,5.877,0c0.465,0,0.633-0.037,0.912-0.318
		C22.063,10.326,25.408,6.94,25.744,6.604z"/>
	<path style="fill:#030104;" d="M19.375,0.235c0.336-0.335,0.584-0.363,0.584,0.264s0,4.555,0,5.067S19.943,6.1,19.662,6.381
		s-4.607,4.604-4.607,4.604s0-5.414,0-5.878c0-0.464,0.037-0.632,0.318-0.912C15.653,3.916,19.039,0.571,19.375,0.235z"/>
	<path style="fill:#030104;" d="M1.621,16.53c-2.161,2.162-2.162,5.666-0.001,7.828c2.161,2.161,5.667,2.161,7.828,0
		c0.93-0.931,6.001-6,6.931-6.93c2.161-2.161,2.161-5.666,0-7.829c-2.162-2.162-5.666-2.161-7.828,0
		C7.621,10.531,2.551,15.6,1.621,16.53z"/>
</g>
<g>
</g>
<g>
</g>
<g>
</g>
<g>
</g>
<g>
</g>
<g>
</g>
<g>
</g>
<g>
</g>
<g>
</g>
<g>
</g>
<g>
</g>
<g>
</g>
<g>
</g>
<g>
</g>
<g>
</g>
</svg>
