<svg xmlns="http://www.w3.org/2000/svg" xmlns:xlink="http://www.w3.org/1999/xlink" version="1.1" x="0px" y="0px" viewBox="0 0 100 125" enable-background="new 0 0 100 100" xml:space="preserve"><line fill="#000000" stroke="#231F20" stroke-miterlimit="10" x1="-170.052" y1="331.141" x2="-171.062" y2="331.141"/><path fill="#000000" stroke="#231F20" stroke-miterlimit="10" d="M-170.052,331.141"/><g><path fill="#000000" d="M10.061,51.764l-1.348,0.399l0.162,0.735c-0.083-0.002-0.149-0.004-0.202-0.006   c-0.72,0.617-0.208,1.357-0.208,1.357s0.381,0.021,0.963,0.055c-0.31-0.049-0.549-0.315-0.549-0.642   c0-0.358,0.292-0.651,0.651-0.651c0.359,0,0.651,0.293,0.651,0.651c0,0.351-0.275,0.633-0.623,0.647   c1.637,0.092,4.611,0.258,5.372,0.295c0.675-0.491,0.347-1.131,0.208-1.348l0.014,0.001L15.27,52.6l-0.392-0.438l-2.948-0.379   c0,0-0.018-0.399,0.034-0.676c-0.274-0.101-1.782,0-1.782,0l-0.039,0.213l-4.041-0.258c-0.171,0.093,0,0.231,0,0.231l4.002,0.229   L10.061,51.764z M14.377,53.229c0.359,0,0.651,0.291,0.651,0.651c0,0.359-0.292,0.651-0.651,0.651   c-0.361,0-0.651-0.292-0.651-0.651C13.726,53.521,14.017,53.229,14.377,53.229z M12.732,53.158c0.36,0,0.651,0.292,0.651,0.65   c0,0.36-0.291,0.651-0.651,0.651c-0.359,0-0.651-0.291-0.651-0.651C12.081,53.45,12.373,53.158,12.732,53.158z M11.044,53.021   c0.36,0,0.651,0.291,0.651,0.65s-0.291,0.651-0.651,0.651c-0.359,0-0.651-0.292-0.651-0.651S10.685,53.021,11.044,53.021z"/><path fill="#000000" d="M93.215,56.585c-0.686,0.479-1.102,2.571-1.238,3.325c0.137,0.343-0.687,2.796-0.687,2.796l-72.57-0.445   h-1.473l-0.778-0.594H15.19l-0.023,0.479h-0.571l0.045-0.525c0,0-0.457,0.068-0.937,0c-0.479-0.068-0.274-0.73-0.274-0.73   l1.256-0.047l0.023-0.566l0.433,0.018l-0.022,0.528l1.438,0.02l0.619-0.386l1.449-0.007c-0.064-0.376-0.149-0.736-0.26-0.939   c-0.22-0.403-1.742-0.11-6.267-0.454c-4.524-0.343-4.545-4.858-4.545-4.858s10.237,0.671,15.298,0.653   c-0.083-0.297,0.03-0.613,0.03-0.613l-0.528-0.574l-4.539,0.009V53.42l4.525-0.068l0.48-0.64l2.562-0.093l1.643,0.458l0.023,0.662   l-1.91,0.065l0.052,1.223c0.241-0.027,0.403-0.129,0.488-0.104c0.89,0.279,1.37-0.138,1.599-0.271l0.296-0.184l1.189-1.005   l0.64,0.822l1.005,0.092l0.092-0.729l-0.412-0.002l-0.023-0.687l0.548-0.09l0.014-0.298l-3.03-0.344l0.114-0.318l2.902,0.296   l-0.045-0.479l2.606,0.068l0.975,0.893l-0.015,0.615l-1.326-0.025l0.068,1.188l3.11,0.003v-6.803l-0.87,0.046l-0.049-1.167   l1.169-0.022L36.19,37.61h0.765l-0.034,5.142l0.983,0.023v0.617l-0.914,0.045l0.056,2.49l0.971-0.007l0.161,8.547l2.788,0.139   v-3.611l2.924-1.142h0.686v1.875h-2.284v1.051h1.931l-0.022-0.029c-0.03,0.012-0.063,0.02-0.097,0.02c0,0-0.004,0-0.01-0.002   c-0.007,0-0.019-0.006-0.033-0.01c0.014,0.003,0.029,0.006,0.044,0.006c0.135,0,0.246-0.113,0.246-0.252s-0.111-0.253-0.246-0.253   c-0.136,0-0.248,0.114-0.248,0.253c0,0.034,0.007,0.065,0.02,0.096c-0.014-0.027-0.026-0.059-0.032-0.096   c0-0.142,0.116-0.257,0.258-0.257c0.141,0,0.256,0.115,0.256,0.257c0,0.059-0.019,0.11-0.052,0.153l0.103,0.114h0.166v2.01   l0.979,0.048l-0.304-11.689l-1.473,0.019l-0.412-0.617l0.137-0.48L46.382,42v-0.823c-0.788-0.034-0.652-0.704-0.652-0.704   s-0.103-0.789-0.171-1.749c-0.029-0.395,0.083-0.583,0.224-0.668c0.099-0.005,0.248-0.015,0.462-0.033   c1.23-0.104,1.131,0.598,1.131,0.598s0.034,0.686,0.034,1.576c0,0.892-0.309,0.911-0.309,0.911h-0.307v0.96h3.497v0.686   l-0.479,0.549h-2.674l-0.036,1.009l1.956,0.019v0.685l-0.274,0.412l-1.989-0.053l0.001,1.768v0.617h1.44l-1.55,0.958l0.109,6.119   h4.09l0.094-5.912H50.43V48.24l1.677,0.015l0.035,0.686l-0.617-0.035l0.067,5.88l1.869-0.034l1.974-2.398l0.273,0.823l1.471,0.034   l0.029,1.729l2.798,0.107l-0.17-1.271h-0.993l0.033-1.217l0.704-0.43l2.829,0.104l2.125,0.668l7.336,0.291l0.023,0.262   l-7.274-0.192L64.744,54l-0.062,1.25l-0.022,1.507l2.567,0.121l0.479,0.033l2.603,0.175l0.02-0.809l-0.924-0.066l0.068-0.928   l0.529-0.754l2.708,0.068l2.554,0.565l5.689,0.206l-0.008,0.189l-5.631-0.121l0.121,1.129c0,0,0.381-0.018,0.381,0.354   C85.355,57.311,93.887,56.116,93.215,56.585z"/></g><text x="0" y="115" fill="#000000" font-size="5px" font-weight="bold" font-family="'Helvetica Neue', Helvetica, Arial-Unicode, Arial, Sans-serif">Created by Jackson Davis</text><text x="0" y="120" fill="#000000" font-size="5px" font-weight="bold" font-family="'Helvetica Neue', Helvetica, Arial-Unicode, Arial, Sans-serif">from the Noun Project</text></svg>