<svg xmlns="http://www.w3.org/2000/svg" xmlns:xlink="http://www.w3.org/1999/xlink" version="1.1" x="0px" y="0px" viewBox="0 0 100 125" enable-background="new 0 0 100 100" xml:space="preserve"><path fill="#000000" d="M15.293,60.772h2.936l0.145,0.448c0,0,0.13,0.206,0.304,0.206h3.576c0,0,0.834-0.021,0.834-0.606  c0,0-0.153-1.17-1.351-1.088l-1.676,0.116c0,0-0.289,0.086-0.896,0.346c-0.07,0.031-0.137,0.06-0.201,0.088h-3.67  c-0.136,0-0.246,0.109-0.246,0.245S15.157,60.772,15.293,60.772z"/><path fill="#000000" d="M24.821,59.335v0.658h7.998V59.53c0-0.845-0.954-0.737-0.954-0.737h-6.112  C24.713,58.793,24.821,59.335,24.821,59.335z"/><path fill="#000000" d="M31.605,55.162v1.673h0.39v-1.703c0.395-0.115,0.683-0.479,0.683-0.911c0-0.525-0.425-0.95-0.949-0.95  c-0.525,0-0.951,0.425-0.951,0.95C30.778,54.704,31.138,55.102,31.605,55.162z"/><path fill="#000000" d="M23.977,36.905c0.006,0,0.011,0,0.017,0s0.011,0,0.017,0H23.977z"/><path fill="#000000" d="M23.746,47.48h0.244l0.021,12.354c0,0.02,0.003,0.039,0.006,0.058h0.324v-0.824  c-0.008-0.375,0.432-0.57,0.677-0.649L24.491,47.48h0.252c0.191,0,0.346-0.155,0.346-0.347s-0.155-0.347-0.346-0.347h-0.284  l-0.396-9.536c0-0.185,0.097-0.336-0.069-0.346c-0.167,0.01-0.069,0.161-0.069,0.346l0.063,9.536h-0.242  c-0.191,0-0.347,0.155-0.347,0.347S23.554,47.48,23.746,47.48z"/><path fill="#000000" d="M77.595,57.994l-0.563,0.003h-1.127c0,0-0.629-0.064-0.629,0.348v1.019c0,0.455,0.521,0.368,0.521,0.368  h3.749c0,0,0.477-0.044,0.759-0.368l0.303-0.325v-0.042l3.5-0.333c0.136-0.013,0.234-0.133,0.221-0.269  c-0.013-0.135-0.133-0.233-0.269-0.22l-3.544,0.336c-0.104-0.069-0.295-0.169-0.58-0.21C79.479,58.236,77.595,57.994,77.595,57.994z  "/><path fill="#000000" d="M59.347,32.44c0.006,0,0.011,0,0.017,0.001c0.006-0.001,0.011-0.001,0.018-0.001H59.347z"/><path fill="#000000" d="M59.115,43.623h0.232l0.033,14.087c0,0.02,0.003,0.039,0.005,0.058h0.498V55.21  c-0.009-0.376,0.258-0.57,0.503-0.649L59.86,43.623h0.252c0.191,0,0.347-0.155,0.347-0.347s-0.155-0.347-0.347-0.347h-0.283  l-0.396-10.143c0-0.186,0.098-0.336-0.069-0.346c-0.166,0.01-0.069,0.16-0.069,0.346l0.051,10.143h-0.229  c-0.191,0-0.347,0.155-0.347,0.347S58.924,43.623,59.115,43.623z"/><path fill="#000000" d="M62.142,59.738h10.093h1.74h0.348v-0.034v-0.313v-0.568v-0.159v-0.216c0-0.192-0.155-0.348-0.348-0.348  h-7.52c0-1.5,0-6.124,0-6.415c0-0.043-0.009-0.08-0.023-0.113c-0.104-0.228-0.519-0.211-0.519-0.211h-1.084v-0.654  c-0.002-0.271-0.411-0.257-0.411-0.257h-1.419h-0.315h-0.133v1.572v0.017c0,0.001-0.002,0.001-0.002,0.003  c-0.012,0.067-0.042,0.141-0.122,0.159c-0.012,0.004-0.021,0.005-0.021,0.005h-0.135h-0.117H61.86c-0.52,0-0.455,0.759-0.455,0.759  v1.755c-0.976,0-0.932,1.171-0.932,1.171v2.21h-1.604v-0.303c0-0.401-0.823-0.392-0.823-0.392h-2.112v1.042v0.216v0.728v0.348h0.346  H62.142z"/><path fill="#000000" d="M73.823,57.32c0,0,0-0.047-0.042-0.115l4.404-0.432c0.136-0.014,0.234-0.134,0.221-0.269  c-0.013-0.135-0.133-0.233-0.269-0.221l-5.085,0.498c-0.03-0.009-0.062-0.018-0.096-0.025l-2.406-0.542c0,0-0.173,0-0.78,0h-0.347  c0,0-0.65-0.043-0.65,0.542v0.917h5.05V57.32z"/><path fill="#000000" d="M45.843,49.562c0-0.192-0.154-0.347-0.346-0.347h-2.146c-0.191,0-0.348,0.154-0.348,0.347v0.328h2.839  V49.562z"/><path fill="#000000" d="M51.522,52.596c0-0.191-0.155-0.348-0.347-0.348h-3.099c-0.192,0-0.347,0.156-0.347,0.348v0.328h3.792  V52.596z"/><path fill="#000000" d="M90.54,60.286l-31.034-0.062v-0.001h-5.534v0.867h-0.368v-1.315c0-0.426-0.629-0.592-0.629-0.592  c-1.064-0.324-1.374-1.659-1.452-2.678v-3.148H47.73v7.733h-1.887V50.323h-2.839v10.768h-1.863v-2.113  c0.116-0.006,0.229-0.011,0.332-0.011c0.044,0,0.084,0,0.122,0c0.002,0,0.004,0,0.005,0h0.452c0.163,0,0.296-0.132,0.296-0.296  s-0.133-0.297-0.296-0.297H41.6c-0.003,0-0.006,0.001-0.01,0.002c-0.036-0.002-0.059-0.002-0.059-0.002h-0.391v-1.211  c0-0.002,0-0.003,0-0.004v-0.836v-0.009c-0.001-0.021-0.033-0.51-0.634-0.86l-3.346-1.77c-0.052-0.039-0.209-0.144-0.384-0.12  c-0.106,0.014-0.198,0.072-0.265,0.167c-0.235,0.336,0.07,0.562,0.365,0.781l0.089,0.066l3.827,2.672v1.123h-6.719  c-0.563,0-0.52,0.415-0.52,0.415c0,0.386,0.347,0.423,0.347,0.423l1.343,0.179v1.7h-1.972v-0.401c0-0.49-0.911-0.407-0.911-0.407  l-7.13-0.059c-1.478,0-1.474,0.571-1.474,0.571v0.632l3.837-0.013c0.025,0.015,0.055,0.023,0.086,0.023h13.224  c0.02,0.007,0.04,0.012,0.062,0.012c0.021,0,0.041-0.005,0.061-0.012h17.465c-0.174,0.395-0.694,0.376-0.694,0.376H5.466  c0,0-1.434-0.087-0.925,0.806l2.803,4.045c0,0,0.635,0.896,1.936,0.896c0,0,0,0,0,0l80.451-0.054c2.477,0,3.233-1.543,3.447-2.225  l2.39-5.028L90.54,60.286z M37.171,54.299l-0.086-0.064c-0.126-0.094-0.298-0.221-0.305-0.27c0,0,0-0.011,0.018-0.034  c0.015-0.021,0.022-0.022,0.026-0.022c0.002,0,0.005,0,0.007,0c0.036,0,0.096,0.032,0.126,0.056l0.013,0.012l3.369,1.782  c0.409,0.238,0.452,0.54,0.456,0.571v0.499L37.171,54.299z M38.205,59.597l1.419-0.385c0.372-0.097,0.786-0.166,1.17-0.206v2.085  h-2.032L38.205,59.597z"/><path fill="#000000" d="M31.995,57.067h-2.319c-0.598,0-0.709,0.326-0.729,0.415c-0.005,0.024-0.008,0.05-0.008,0.076v0.997h3.056  V57.067z"/><text x="0" y="115" fill="#000000" font-size="5px" font-weight="bold" font-family="'Helvetica Neue', Helvetica, Arial-Unicode, Arial, Sans-serif">Created by Yair Cohen</text><text x="0" y="120" fill="#000000" font-size="5px" font-weight="bold" font-family="'Helvetica Neue', Helvetica, Arial-Unicode, Arial, Sans-serif">from the Noun Project</text></svg>